<svg xmlns="http://www.w3.org/2000/svg" xmlns:xlink="http://www.w3.org/1999/xlink" width="543" height="467" viewBox="0 0 543 467">
  <defs>
    <clipPath id="clip-path">
      <rect width="33.943" height="25" fill="none"/>
    </clipPath>
  </defs>
  <g id="board-1" transform="translate(-27 -201)">
    <circle id="Ellipse_7" data-name="Ellipse 7" cx="10.5" cy="10.5" r="10.5" transform="translate(27 295)"/>
    <circle id="Ellipse_8" data-name="Ellipse 8" cx="10.5" cy="10.5" r="10.5" transform="translate(228 647)"/>
    <circle id="Ellipse_9" data-name="Ellipse 9" cx="10.5" cy="10.5" r="10.5" transform="translate(424 592)"/>
    <g id="board-left">
      <g id="logo" transform="translate(-89 -73)">
        <rect id="outer-rectangle" width="25" height="25" rx="4" transform="translate(310 298)"/>
        <g id="center-reactangles" transform="translate(314.79 306.107)">
          <rect id="Rectangle_2" data-name="Rectangle 2" width="4" height="3" transform="translate(0.21 -0.107)" fill="#fff"/>
          <rect id="Rectangle_4" data-name="Rectangle 4" width="5" height="3" transform="translate(11.21 5.893)" fill="#fff"/>
          <rect id="Rectangle_3" data-name="Rectangle 3" width="9" height="3" transform="translate(7.21 -0.107)" fill="#fff"/>
          <rect id="Rectangle_5" data-name="Rectangle 5" width="9" height="3" transform="translate(0.21 5.893)" fill="#fff"/>
        </g>
      </g>
      <g id="Rectangle_12" data-name="Rectangle 12" transform="translate(74 201)" fill="none" stroke="#000" stroke-width="4">
        <rect width="319" height="432" rx="5" stroke="none"/>
        <rect x="2" y="2" width="315" height="428" rx="3" fill="none"/>
      </g>
      <circle id="Ellipse_6" data-name="Ellipse 6" cx="12.5" cy="12.5" r="12.5" transform="translate(112 225)" fill="#efefef"/>
      <line id="Line_6" data-name="Line 6" x2="223" transform="translate(116.5 307.5)" fill="none" stroke="#000" stroke-linecap="round" stroke-width="4"/>
      <line id="Line_12" data-name="Line 12" x2="223" transform="translate(116.5 494.5)" fill="none" stroke="#000" stroke-linecap="round" stroke-width="4"/>
      <line id="Line_7" data-name="Line 7" x2="223" transform="translate(116.5 410.5)" fill="none" stroke="#000" stroke-linecap="round" stroke-width="4"/>
      <line id="Line_6-2" data-name="Line 6" x2="223" transform="translate(116.5 320.5)" fill="none" stroke="#000" stroke-linecap="round" stroke-width="4"/>
      <line id="Line_10" data-name="Line 10" x2="223" transform="translate(116.5 507.5)" fill="none" stroke="#000" stroke-linecap="round" stroke-width="4"/>
      <line id="Line_8" data-name="Line 8" x2="223" transform="translate(116.5 423.5)" fill="none" stroke="#000" stroke-linecap="round" stroke-width="4"/>
      <line id="Line_6-3" data-name="Line 6" x2="223" transform="translate(116.5 333.5)" fill="none" stroke="#000" stroke-linecap="round" stroke-width="4"/>
      <path id="Path_6" data-name="Path 6" d="M0,0H223" transform="translate(116.5 520.5)" fill="none" stroke="#000" stroke-linecap="round" stroke-width="4"/>
      <line id="Line_9" data-name="Line 9" x2="223" transform="translate(116.5 436.5)" fill="none" stroke="#000" stroke-linecap="round" stroke-width="4"/>
      <line id="Line_6-4" data-name="Line 6" x2="223" transform="translate(116.5 346.5)" fill="none" stroke="#000" stroke-linecap="round" stroke-width="4"/>
      <line id="Line_13" data-name="Line 13" x2="223" transform="translate(116.5 533.5)" fill="none" stroke="#000" stroke-linecap="round" stroke-width="4"/>
      <path id="Path_2" data-name="Path 2" d="M0,0H29.943" transform="translate(116.5 449.5)" fill="none" stroke="#000" stroke-linecap="round" stroke-width="4"/>
      <g id="Repeat_Grid_1" data-name="Repeat Grid 1" transform="translate(315.5 223.5)" clip-path="url(#clip-path)">
        <g transform="translate(-315.5 -223.5)">
          <path id="Path_3" data-name="Path 3" d="M0,0H29.943" transform="translate(317.5 225.5)" fill="none" stroke="#efefef" stroke-linecap="round" stroke-width="4"/>
        </g>
        <g transform="translate(-315.5 -213.5)">
          <path id="Path_3-2" data-name="Path 3" d="M0,0H29.943" transform="translate(317.5 225.5)" fill="none" stroke="#efefef" stroke-linecap="round" stroke-width="4"/>
        </g>
        <g transform="translate(-315.5 -203.5)">
          <path id="Path_3-3" data-name="Path 3" d="M0,0H29.943" transform="translate(317.5 225.5)" fill="none" stroke="#efefef" stroke-linecap="round" stroke-width="4"/>
        </g>
      </g>
      <path id="Path_4" data-name="Path 4" d="M0,0H63.519" transform="translate(116.5 294.5)" fill="none" stroke="#c10000" stroke-linecap="round" stroke-width="4"/>
      <path id="Path_7" data-name="Path 7" d="M0,0H63.519" transform="translate(116.5 394.5)" fill="none" stroke="#c10000" stroke-linecap="round" stroke-width="4"/>
      <path id="Path_1" data-name="Path 1" d="M0,0H54.9" transform="translate(116.5 359.5)" fill="none" stroke="#000" stroke-linecap="round" stroke-width="4"/>
      <path id="Path_5" data-name="Path 5" d="M0,0H54.9" transform="translate(116.5 546.5)" fill="none" stroke="#000" stroke-linecap="round" stroke-width="4"/>
    </g>
    <g id="boad-right">
      <g id="Rectangle_13" data-name="Rectangle 13" transform="translate(300 296)" fill="#fff" stroke="#000" stroke-width="4">
        <rect width="270" height="252" rx="5" stroke="none"/>
        <rect x="2" y="2" width="266" height="248" rx="3" fill="none"/>
      </g>
      <rect id="Rectangle_14" data-name="Rectangle 14" width="151" height="27" rx="13.5" transform="translate(354 286)"/>
      <path id="Path_8" data-name="Path 8" d="M0,0H63.519" transform="translate(326.5 441.5)" fill="none" stroke="#c10000" stroke-linecap="round" stroke-width="4"/>
      <path id="Path_10" data-name="Path 10" d="M0,0H63.519" transform="translate(323.5 345.5)" fill="none" stroke="#c10000" stroke-linecap="round" stroke-width="4"/>
      <path id="Path_9" data-name="Path 9" d="M0,0H63.519" transform="translate(482.5 363.5)" fill="none" stroke="#000" stroke-linecap="round" stroke-width="4"/>
      <text id="BREAKING_NEWS" data-name="BREAKING NEWS" transform="translate(376 304)" fill="#fff" font-size="12" font-family="Montserrat-Bold, Montserrat" font-weight="700"><tspan x="0" y="0">BREAKING NEWS</tspan></text>
      <line id="Line_14" data-name="Line 14" x2="122" transform="translate(323.5 363.5)" fill="none" stroke="#000" stroke-linecap="round" stroke-width="4"/>
      <line id="Line_18" data-name="Line 18" x2="223" transform="translate(326.5 459.5)" fill="none" stroke="#000" stroke-linecap="round" stroke-width="4"/>
      <line id="Line_15" data-name="Line 15" x2="223" transform="translate(323.5 376.5)" fill="none" stroke="#000" stroke-linecap="round" stroke-width="4"/>
      <line id="Line_19" data-name="Line 19" x2="223" transform="translate(326.5 472.5)" fill="none" stroke="#000" stroke-linecap="round" stroke-width="4"/>
      <line id="Line_16" data-name="Line 16" x2="223" transform="translate(323.5 389.5)" fill="none" stroke="#000" stroke-linecap="round" stroke-width="4"/>
      <line id="Line_20" data-name="Line 20" x2="223" transform="translate(326.5 485.5)" fill="none" stroke="#000" stroke-linecap="round" stroke-width="4"/>
      <line id="Line_17" data-name="Line 17" x2="49" transform="translate(323.5 402.5)" fill="none" stroke="#000" stroke-linecap="round" stroke-width="4"/>
      <line id="Line_21" data-name="Line 21" x2="130" transform="translate(326.5 498.5)" fill="none" stroke="#000" stroke-linecap="round" stroke-width="4"/>
    </g>
  </g>
</svg>
